Flux-Condensed.ufo
<glyph name="period" format="2">
  <advance width="175"/>
  <unicode hex="002E"/>
  <outline>
    <contour>
      <point x="30" y="64" type="curve" smooth="yes"/>
      <point x="30" y="51" type="line" smooth="yes"/>
      <point x="30" y="22"/>
      <point x="52" y="0"/>
      <point x="81" y="0" type="curve" smooth="yes"/>
      <point x="94" y="0" type="line" smooth="yes"/>
      <point x="123" y="0"/>
      <point x="145" y="22"/>
      <point x="145" y="51" type="curve" smooth="yes"/>
      <point x="145" y="64" type="line" smooth="yes"/>
      <point x="145" y="93"/>
      <point x="123" y="115"/>
      <point x="94" y="115" type="curve" smooth="yes"/>
      <point x="81" y="115" type="line" smooth="yes"/>
      <point x="52" y="115"/>
      <point x="30" y="93"/>
    </contour>
  </outline>
</glyph>
<glyph name="three" format="2">
  <advance width="520"/>
  <unicode hex="0033"/>
  <outline>
    <contour>
      <point x="324" y="115" type="curve" smooth="yes"/>
      <point x="81" y="115" type="line"/>
      <point x="52" y="115"/>
      <point x="30" y="93"/>
      <point x="30" y="64" type="curve" smooth="yes"/>
      <point x="30" y="51" type="line" smooth="yes"/>
      <point x="30" y="22"/>
      <point x="53" y="0"/>
      <point x="82" y="0" type="curve" smooth="yes"/>
      <point x="324" y="0" type="line" smooth="yes"/>
      <point x="353" y="0"/>
      <point x="375" y="22"/>
      <point x="375" y="51" type="curve" smooth="yes"/>
      <point x="375" y="64" type="line" smooth="yes"/>
      <point x="375" y="93"/>
      <point x="397" y="115"/>
      <point x="426" y="115" type="curve" smooth="yes"/>
      <point x="439" y="115" type="line" smooth="yes"/>
      <point x="468" y="115"/>
      <point x="490" y="137"/>
      <point x="490" y="166" type="curve" smooth="yes"/>
      <point x="490" y="294" type="line" smooth="yes"/>
      <point x="490" y="323"/>
      <point x="468" y="345"/>
      <point x="439" y="345" type="curve" smooth="yes"/>
      <point x="426" y="345" type="line" smooth="yes"/>
      <point x="397" y="345"/>
      <point x="375" y="367"/>
      <point x="375" y="396" type="curve" smooth="yes"/>
      <point x="375" y="409" type="line" smooth="yes"/>
      <point x="375" y="438"/>
      <point x="397" y="460"/>
      <point x="426" y="460" type="curve" smooth="yes"/>
      <point x="439" y="460" type="line" smooth="yes"/>
      <point x="468" y="460"/>
      <point x="490" y="482"/>
      <point x="490" y="511" type="curve" smooth="yes"/>
      <point x="490" y="524" type="line" smooth="yes"/>
      <point x="490" y="553"/>
      <point x="468" y="575"/>
      <point x="439" y="575" type="curve" smooth="yes"/>
      <point x="426" y="575" type="line" smooth="yes"/>
      <point x="397" y="575"/>
      <point x="375" y="597"/>
      <point x="375" y="626" type="curve" smooth="yes"/>
      <point x="375" y="639" type="line" smooth="yes"/>
      <point x="375" y="668"/>
      <point x="353" y="690"/>
      <point x="324" y="690" type="curve" smooth="yes"/>
      <point x="82" y="690" type="line" smooth="yes"/>
      <point x="53" y="690"/>
      <point x="30" y="668"/>
      <point x="30" y="639" type="curve" smooth="yes"/>
      <point x="30" y="626" type="line" smooth="yes"/>
      <point x="30" y="597"/>
      <point x="52" y="575"/>
      <point x="81" y="575" type="curve" smooth="yes"/>
      <point x="324" y="575" type="line" smooth="yes"/>
      <point x="353" y="575"/>
      <point x="375" y="553"/>
      <point x="375" y="524" type="curve" smooth="yes"/>
      <point x="375" y="511" type="line" smooth="yes"/>
      <point x="375" y="482"/>
      <point x="353" y="460"/>
      <point x="324" y="460" type="curve" smooth="yes"/>
      <point x="196" y="460" type="line" smooth="yes"/>
      <point x="167" y="460"/>
      <point x="145" y="438"/>
      <point x="145" y="409" type="curve" smooth="yes"/>
      <point x="145" y="396" type="line" smooth="yes"/>
      <point x="145" y="367"/>
      <point x="167" y="345"/>
      <point x="196" y="345" type="curve" smooth="yes"/>
      <point x="324" y="345" type="line" smooth="yes"/>
      <point x="353" y="345"/>
      <point x="375" y="323"/>
      <point x="375" y="294" type="curve" smooth="yes"/>
      <point x="375" y="166" type="line" smooth="yes"/>
      <point x="375" y="137"/>
      <point x="353" y="115"/>
    </contour>
  </outline>
</glyph>
<glyph name="A" format="2">
  <advance width="520"/>
  <unicode hex="0041"/>
  <outline>
    <contour>
      <point x="30" y="524" type="curve" smooth="yes"/>
      <point x="30" y="396" type="line"/>
      <point x="30" y="367"/>
      <point x="51" y="345"/>
      <point x="80" y="345" type="curve" smooth="yes"/>
      <point x="93" y="345" type="line" smooth="yes"/>
      <point x="122" y="345"/>
      <point x="144" y="323"/>
      <point x="144" y="294" type="curve" smooth="yes"/>
      <point x="144" y="281" type="line" smooth="yes"/>
      <point x="144" y="252"/>
      <point x="122" y="230"/>
      <point x="93" y="230" type="curve" smooth="yes"/>
      <point x="81" y="230" type="line" smooth="yes"/>
      <point x="52" y="230"/>
      <point x="30" y="208"/>
      <point x="30" y="179" type="curve" smooth="yes"/>
      <point x="30" y="51" type="line" smooth="yes"/>
      <point x="30" y="22"/>
      <point x="52" y="0"/>
      <point x="81" y="0" type="curve" smooth="yes"/>
      <point x="94" y="0" type="line" smooth="yes"/>
      <point x="123" y="0"/>
      <point x="145" y="22"/>
      <point x="145" y="51" type="curve" smooth="yes"/>
      <point x="145" y="179" type="line" smooth="yes"/>
      <point x="145" y="208"/>
      <point x="167" y="230"/>
      <point x="196" y="230" type="curve" smooth="yes"/>
      <point x="324" y="230" type="line" smooth="yes"/>
      <point x="353" y="230"/>
      <point x="375" y="208"/>
      <point x="375" y="179" type="curve" smooth="yes"/>
      <point x="375" y="51" type="line" smooth="yes"/>
      <point x="375" y="22"/>
      <point x="397" y="0"/>
      <point x="426" y="0" type="curve" smooth="yes"/>
      <point x="439" y="0" type="line" smooth="yes"/>
      <point x="468" y="0"/>
      <point x="489" y="22"/>
      <point x="489" y="51" type="curve"/>
      <point x="490" y="179" type="line"/>
      <point x="490" y="208"/>
      <point x="468" y="230"/>
      <point x="439" y="230" type="curve" smooth="yes"/>
      <point x="426" y="230" type="line" smooth="yes"/>
      <point x="397" y="230"/>
      <point x="375" y="252"/>
      <point x="375" y="281" type="curve" smooth="yes"/>
      <point x="375" y="294" type="line"/>
      <point x="375" y="329"/>
      <point x="397" y="345"/>
      <point x="425" y="345" type="curve" smooth="yes"/>
      <point x="438" y="345" type="line" smooth="yes"/>
      <point x="467" y="345"/>
      <point x="489" y="367"/>
      <point x="489" y="396" type="curve" smooth="yes"/>
      <point x="489" y="524" type="line" smooth="yes"/>
      <point x="489" y="553"/>
      <point x="467" y="575"/>
      <point x="438" y="575" type="curve" smooth="yes"/>
      <point x="425" y="575" type="line" smooth="yes"/>
      <point x="396" y="575"/>
      <point x="374" y="597"/>
      <point x="374" y="626" type="curve" smooth="yes"/>
      <point x="374" y="639" type="line" smooth="yes"/>
      <point x="374" y="668"/>
      <point x="352" y="690"/>
      <point x="323" y="690" type="curve" smooth="yes"/>
      <point x="195" y="690" type="line" smooth="yes"/>
      <point x="166" y="690"/>
      <point x="144" y="668"/>
      <point x="144" y="639" type="curve" smooth="yes"/>
      <point x="144" y="626" type="line" smooth="yes"/>
      <point x="144" y="597"/>
      <point x="122" y="575"/>
      <point x="93" y="575" type="curve" smooth="yes"/>
      <point x="80" y="575" type="line" smooth="yes"/>
      <point x="51" y="575"/>
      <point x="30" y="553"/>
    </contour>
    <contour>
      <point x="144" y="396" type="curve" smooth="yes"/>
      <point x="144" y="524" type="line" smooth="yes"/>
      <point x="144" y="553"/>
      <point x="166" y="575"/>
      <point x="195" y="575" type="curve" smooth="yes"/>
      <point x="323" y="575" type="line" smooth="yes"/>
      <point x="352" y="575"/>
      <point x="374" y="553"/>
      <point x="374" y="524" type="curve" smooth="yes"/>
      <point x="374" y="396" type="line" smooth="yes"/>
      <point x="374" y="367"/>
      <point x="352" y="345"/>
      <point x="323" y="345" type="curve" smooth="yes"/>
      <point x="195" y="345" type="line" smooth="yes"/>
      <point x="166" y="345"/>
      <point x="144" y="367"/>
    </contour>
  </outline>
</glyph>
<glyph name="G" format="2">
  <advance width="520"/>
  <unicode hex="0047"/>
  <outline>
    <contour>
      <point x="30" y="524" type="curve" smooth="yes"/>
      <point x="30" y="166" type="line" smooth="yes"/>
      <point x="30" y="137"/>
      <point x="52" y="115"/>
      <point x="81" y="115" type="curve" smooth="yes"/>
      <point x="94" y="115" type="line" smooth="yes"/>
      <point x="123" y="115"/>
      <point x="145" y="93"/>
      <point x="145" y="64" type="curve" smooth="yes"/>
      <point x="145" y="51" type="line" smooth="yes"/>
      <point x="145" y="22"/>
      <point x="167" y="0"/>
      <point x="196" y="0" type="curve" smooth="yes"/>
      <point x="323" y="0" type="line" smooth="yes"/>
      <point x="352" y="0"/>
      <point x="375" y="22"/>
      <point x="375" y="51" type="curve" smooth="yes"/>
      <point x="375" y="64" type="line" smooth="yes"/>
      <point x="375" y="93"/>
      <point x="397" y="115"/>
      <point x="426" y="115" type="curve" smooth="yes"/>
      <point x="439" y="115" type="line" smooth="yes"/>
      <point x="468" y="115"/>
      <point x="490" y="137"/>
      <point x="490" y="166" type="curve" smooth="yes"/>
      <point x="490" y="294" type="line" smooth="yes"/>
      <point x="490" y="323"/>
      <point x="468" y="345"/>
      <point x="439" y="345" type="curve" smooth="yes"/>
      <point x="426" y="345" type="line" smooth="yes"/>
      <point x="397" y="345"/>
      <point x="375" y="367"/>
      <point x="375" y="396" type="curve" smooth="yes"/>
      <point x="375" y="409" type="line" smooth="yes"/>
      <point x="375" y="438"/>
      <point x="353" y="460"/>
      <point x="324" y="460" type="curve" smooth="yes"/>
      <point x="311" y="460" type="line" smooth="yes"/>
      <point x="282" y="460"/>
      <point x="260" y="438"/>
      <point x="260" y="409" type="curve" smooth="yes"/>
      <point x="260" y="396" type="line" smooth="yes"/>
      <point x="260" y="367"/>
      <point x="282" y="345"/>
      <point x="311" y="345" type="curve" smooth="yes"/>
      <point x="324" y="345" type="line" smooth="yes"/>
      <point x="353" y="345"/>
      <point x="375" y="323"/>
      <point x="375" y="294" type="curve" smooth="yes"/>
      <point x="375" y="166" type="line" smooth="yes"/>
      <point x="375" y="137"/>
      <point x="353" y="115"/>
      <point x="324" y="115" type="curve" smooth="yes"/>
      <point x="196" y="115" type="line" smooth="yes"/>
      <point x="167" y="115"/>
      <point x="145" y="137"/>
      <point x="145" y="166" type="curve" smooth="yes"/>
      <point x="145" y="524" type="line" smooth="yes"/>
      <point x="145" y="553"/>
      <point x="167" y="575"/>
      <point x="196" y="575" type="curve" smooth="yes"/>
      <point x="439" y="575" type="line" smooth="yes"/>
      <point x="468" y="575"/>
      <point x="490" y="597"/>
      <point x="490" y="626" type="curve" smooth="yes"/>
      <point x="490" y="639" type="line" smooth="yes"/>
      <point x="490" y="668"/>
      <point x="467" y="690"/>
      <point x="438" y="690" type="curve" smooth="yes"/>
      <point x="196" y="690" type="line" smooth="yes"/>
      <point x="167" y="690"/>
      <point x="145" y="668"/>
      <point x="145" y="639" type="curve" smooth="yes"/>
      <point x="145" y="626" type="line" smooth="yes"/>
      <point x="145" y="597"/>
      <point x="123" y="575"/>
      <point x="94" y="575" type="curve" smooth="yes"/>
      <point x="81" y="575" type="line" smooth="yes"/>
      <point x="52" y="575"/>
      <point x="30" y="553"/>
    </contour>
  </outline>
</glyph>
<glyph name="I" format="2">
  <advance width="520"/>
  <unicode hex="0049"/>
  <outline>
    <contour>
      <point x="80" y="0" type="curve"/>
      <point x="439" y="0" type="line"/>
      <point x="469" y="0"/>
      <point x="490" y="22"/>
      <point x="490" y="51" type="curve" smooth="yes"/>
      <point x="490" y="64" type="line" smooth="yes"/>
      <point x="490" y="93"/>
      <point x="468" y="115"/>
      <point x="440" y="115" type="curve" smooth="yes"/>
      <point x="369" y="115" type="line" smooth="yes"/>
      <point x="340" y="115"/>
      <point x="318" y="137"/>
      <point x="318" y="166" type="curve" smooth="yes"/>
      <point x="318" y="524" type="line" smooth="yes"/>
      <point x="318" y="553"/>
      <point x="340" y="575"/>
      <point x="369" y="575" type="curve" smooth="yes"/>
      <point x="440" y="575" type="line" smooth="yes"/>
      <point x="468" y="575"/>
      <point x="490" y="597"/>
      <point x="490" y="626" type="curve" smooth="yes"/>
      <point x="490" y="639" type="line" smooth="yes"/>
      <point x="490" y="668"/>
      <point x="468" y="690"/>
      <point x="440" y="690" type="curve" smooth="yes"/>
      <point x="80" y="690" type="line" smooth="yes"/>
      <point x="52" y="690"/>
      <point x="30" y="668"/>
      <point x="30" y="639" type="curve" smooth="yes"/>
      <point x="30" y="626" type="line" smooth="yes"/>
      <point x="30" y="597"/>
      <point x="52" y="575"/>
      <point x="79" y="575" type="curve" smooth="yes"/>
      <point x="152" y="575" type="line" smooth="yes"/>
      <point x="181" y="575"/>
      <point x="203" y="553"/>
      <point x="203" y="524" type="curve" smooth="yes"/>
      <point x="203" y="166" type="line" smooth="yes"/>
      <point x="203" y="137"/>
      <point x="181" y="115"/>
      <point x="152" y="115" type="curve" smooth="yes"/>
      <point x="79" y="115" type="line" smooth="yes"/>
      <point x="51" y="115"/>
      <point x="30" y="93"/>
      <point x="30" y="64" type="curve" smooth="yes"/>
      <point x="30" y="51" type="line" smooth="yes"/>
      <point x="30" y="22"/>
      <point x="50" y="0"/>
    </contour>
  </outline>
</glyph>
<glyph name="K" format="2">
  <advance width="520"/>
  <unicode hex="004B"/>
  <outline>
    <contour>
      <point x="30" y="51" type="curve" smooth="yes"/>
      <point x="30" y="639" type="line" smooth="yes"/>
      <point x="30" y="668"/>
      <point x="52" y="690"/>
      <point x="81" y="690" type="curve" smooth="yes"/>
      <point x="94" y="690" type="line" smooth="yes"/>
      <point x="123" y="690"/>
      <point x="145" y="668"/>
      <point x="145" y="639" type="curve" smooth="yes"/>
      <point x="145" y="510" type="line" smooth="yes"/>
      <point x="145" y="481"/>
      <point x="167" y="459"/>
      <point x="196" y="459" type="curve" smooth="yes"/>
      <point x="324" y="459" type="line" smooth="yes"/>
      <point x="353" y="459"/>
      <point x="375" y="480"/>
      <point x="375" y="509" type="curve" smooth="yes"/>
      <point x="375" y="639" type="line" smooth="yes"/>
      <point x="375" y="668"/>
      <point x="397" y="690"/>
      <point x="426" y="690" type="curve" smooth="yes"/>
      <point x="439" y="690" type="line" smooth="yes"/>
      <point x="468" y="690"/>
      <point x="490" y="668"/>
      <point x="490" y="639" type="curve" smooth="yes"/>
      <point x="490" y="509" type="line" smooth="yes"/>
      <point x="490" y="480"/>
      <point x="468" y="460"/>
      <point x="439" y="460" type="curve" smooth="yes"/>
      <point x="426" y="460" type="line" smooth="yes"/>
      <point x="397" y="460"/>
      <point x="375" y="436"/>
      <point x="375" y="407" type="curve" smooth="yes"/>
      <point x="375" y="395" type="line" smooth="yes"/>
      <point x="375" y="366"/>
      <point x="397" y="345"/>
      <point x="426" y="345" type="curve" smooth="yes"/>
      <point x="439" y="345" type="line" smooth="yes"/>
      <point x="468" y="345"/>
      <point x="490" y="322"/>
      <point x="490" y="293" type="curve" smooth="yes"/>
      <point x="490" y="51" type="line" smooth="yes"/>
      <point x="490" y="22"/>
      <point x="468" y="0"/>
      <point x="439" y="0" type="curve" smooth="yes"/>
      <point x="426" y="0" type="line" smooth="yes"/>
      <point x="397" y="0"/>
      <point x="375" y="22"/>
      <point x="375" y="51" type="curve" smooth="yes"/>
      <point x="375" y="293" type="line" smooth="yes"/>
      <point x="375" y="322"/>
      <point x="353" y="344"/>
      <point x="324" y="344" type="curve" smooth="yes"/>
      <point x="196" y="344" type="line" smooth="yes"/>
      <point x="167" y="344"/>
      <point x="145" y="322"/>
      <point x="145" y="293" type="curve" smooth="yes"/>
      <point x="145" y="51" type="line" smooth="yes"/>
      <point x="145" y="22"/>
      <point x="123" y="0"/>
      <point x="94" y="0" type="curve" smooth="yes"/>
      <point x="81" y="0" type="line" smooth="yes"/>
      <point x="52" y="0"/>
      <point x="30" y="22"/>
    </contour>
  </outline>
</glyph>
<glyph name="L" format="2">
  <advance width="520"/>
  <unicode hex="004C"/>
  <outline>
    <contour>
      <point x="195" y="115" type="curve" smooth="yes"/>
      <point x="439" y="115" type="line" smooth="yes"/>
      <point x="468" y="115"/>
      <point x="490" y="93"/>
      <point x="490" y="64" type="curve" smooth="yes"/>
      <point x="490" y="51" type="line" smooth="yes"/>
      <point x="490" y="22"/>
      <point x="468" y="0"/>
      <point x="439" y="0" type="curve" smooth="yes"/>
      <point x="195" y="0" type="line" smooth="yes"/>
      <point x="166" y="0"/>
      <point x="145" y="22"/>
      <point x="145" y="51" type="curve" smooth="yes"/>
      <point x="145" y="64" type="line" smooth="yes"/>
      <point x="145" y="93"/>
      <point x="124" y="115"/>
      <point x="95" y="115" type="curve" smooth="yes"/>
      <point x="80" y="115" type="line" smooth="yes"/>
      <point x="51" y="115"/>
      <point x="30" y="137"/>
      <point x="30" y="166" type="curve" smooth="yes"/>
      <point x="30" y="639" type="line" smooth="yes"/>
      <point x="30" y="668"/>
      <point x="51" y="690"/>
      <point x="80" y="690" type="curve" smooth="yes"/>
      <point x="95" y="690" type="line" smooth="yes"/>
      <point x="124" y="690"/>
      <point x="145" y="668"/>
      <point x="145" y="639" type="curve" smooth="yes"/>
      <point x="145" y="166" type="line" smooth="yes"/>
      <point x="145" y="137"/>
      <point x="166" y="115"/>
    </contour>
  </outline>
</glyph>
<glyph name="N" format="2">
  <advance width="520"/>
  <unicode hex="004E"/>
  <outline>
    <contour>
      <point x="81" y="690" type="curve" smooth="yes"/>
      <point x="209" y="690" type="line" smooth="yes"/>
      <point x="238" y="690"/>
      <point x="260" y="668"/>
      <point x="260" y="639" type="curve" smooth="yes"/>
      <point x="260" y="626" type="line" smooth="yes"/>
      <point x="260" y="597"/>
      <point x="282" y="575"/>
      <point x="311" y="575" type="curve" smooth="yes"/>
      <point x="324" y="575" type="line" smooth="yes"/>
      <point x="353" y="575"/>
      <point x="375" y="597"/>
      <point x="375" y="626" type="curve" smooth="yes"/>
      <point x="375" y="639" type="line" smooth="yes"/>
      <point x="375" y="668"/>
      <point x="397" y="690"/>
      <point x="426" y="690" type="curve" smooth="yes"/>
      <point x="439" y="690" type="line" smooth="yes"/>
      <point x="468" y="690"/>
      <point x="490" y="668"/>
      <point x="490" y="639" type="curve"/>
      <point x="490" y="51" type="line"/>
      <point x="490" y="22"/>
      <point x="468" y="0"/>
      <point x="439" y="0" type="curve" smooth="yes"/>
      <point x="426" y="0" type="line" smooth="yes"/>
      <point x="397" y="0"/>
      <point x="375" y="22"/>
      <point x="375" y="51" type="curve" smooth="yes"/>
      <point x="375" y="409" type="line" smooth="yes"/>
      <point x="375" y="438"/>
      <point x="353" y="460"/>
      <point x="324" y="460" type="curve" smooth="yes"/>
      <point x="311" y="460" type="line" smooth="yes"/>
      <point x="282" y="460"/>
      <point x="260" y="482"/>
      <point x="260" y="511" type="curve" smooth="yes"/>
      <point x="260" y="524" type="line" smooth="yes"/>
      <point x="260" y="553"/>
      <point x="238" y="575"/>
      <point x="209" y="575" type="curve" smooth="yes"/>
      <point x="196" y="575" type="line" smooth="yes"/>
      <point x="167" y="575"/>
      <point x="145" y="553"/>
      <point x="145" y="524" type="curve" smooth="yes"/>
      <point x="145" y="51" type="line" smooth="yes"/>
      <point x="145" y="22"/>
      <point x="123" y="0"/>
      <point x="94" y="0" type="curve" smooth="yes"/>
      <point x="81" y="0" type="line" smooth="yes"/>
      <point x="52" y="0"/>
      <point x="30" y="22"/>
      <point x="30" y="51" type="curve" smooth="yes"/>
      <point x="30" y="639" type="line" smooth="yes"/>
      <point x="30" y="668"/>
      <point x="52" y="690"/>
    </contour>
  </outline>
</glyph>
<glyph name="Q" format="2">
  <advance width="520"/>
  <unicode hex="0051"/>
  <outline>
    <contour>
      <point x="145" y="64" type="curve" smooth="yes"/>
      <point x="145" y="51" type="line" smooth="yes"/>
      <point x="145" y="22"/>
      <point x="167" y="0"/>
      <point x="196" y="0" type="curve" smooth="yes"/>
      <point x="209" y="0" type="line" smooth="yes"/>
      <point x="238" y="0"/>
      <point x="260" y="22"/>
      <point x="260" y="51" type="curve" smooth="yes"/>
      <point x="260" y="64" type="line" smooth="yes"/>
      <point x="260" y="93"/>
      <point x="282" y="115"/>
      <point x="311" y="115" type="curve" smooth="yes"/>
      <point x="324" y="115" type="line" smooth="yes"/>
      <point x="353" y="115"/>
      <point x="375" y="93"/>
      <point x="375" y="64" type="curve" smooth="yes"/>
      <point x="375" y="51" type="line" smooth="yes"/>
      <point x="375" y="22"/>
      <point x="397" y="0"/>
      <point x="426" y="0" type="curve" smooth="yes"/>
      <point x="439" y="0" type="line" smooth="yes"/>
      <point x="468" y="0"/>
      <point x="490" y="22"/>
      <point x="490" y="51" type="curve" smooth="yes"/>
      <point x="490" y="64" type="line" smooth="yes"/>
      <point x="490" y="93"/>
      <point x="468" y="115"/>
      <point x="439" y="115" type="curve" smooth="yes"/>
      <point x="426" y="115" type="line" smooth="yes"/>
      <point x="397" y="115"/>
      <point x="375" y="137"/>
      <point x="375" y="166" type="curve" smooth="yes"/>
      <point x="375" y="177" type="line" smooth="yes"/>
      <point x="375" y="207"/>
      <point x="397" y="228"/>
      <point x="427" y="228" type="curve" smooth="yes"/>
      <point x="438" y="228" type="line" smooth="yes"/>
      <point x="467" y="228"/>
      <point x="490" y="251"/>
      <point x="490" y="280" type="curve" smooth="yes"/>
      <point x="490" y="525" type="line" smooth="yes"/>
      <point x="490" y="554"/>
      <point x="469" y="576"/>
      <point x="440" y="576" type="curve" smooth="yes"/>
      <point x="425" y="576" type="line" smooth="yes"/>
      <point x="396" y="576"/>
      <point x="375" y="597"/>
      <point x="375" y="626" type="curve" smooth="yes"/>
      <point x="375" y="639" type="line" smooth="yes"/>
      <point x="375" y="668"/>
      <point x="353" y="690"/>
      <point x="324" y="690" type="curve" smooth="yes"/>
      <point x="196" y="690" type="line" smooth="yes"/>
      <point x="167" y="690"/>
      <point x="145" y="668"/>
      <point x="145" y="639" type="curve" smooth="yes"/>
      <point x="145" y="626" type="line" smooth="yes"/>
      <point x="145" y="597"/>
      <point x="123" y="575"/>
      <point x="94" y="575" type="curve" smooth="yes"/>
      <point x="81" y="575" type="line" smooth="yes"/>
      <point x="52" y="575"/>
      <point x="30" y="553"/>
      <point x="30" y="524" type="curve" smooth="yes"/>
      <point x="30" y="166" type="line" smooth="yes"/>
      <point x="30" y="137"/>
      <point x="52" y="115"/>
      <point x="81" y="115" type="curve" smooth="yes"/>
      <point x="94" y="115" type="line" smooth="yes"/>
      <point x="123" y="115"/>
      <point x="145" y="93"/>
    </contour>
    <contour>
      <point x="145" y="166" type="curve" smooth="yes"/>
      <point x="145" y="524" type="line" smooth="yes"/>
      <point x="145" y="553"/>
      <point x="167" y="575"/>
      <point x="196" y="575" type="curve" smooth="yes"/>
      <point x="324" y="575" type="line" smooth="yes"/>
      <point x="353" y="575"/>
      <point x="375" y="553"/>
      <point x="375" y="524" type="curve" smooth="yes"/>
      <point x="375" y="281" type="line" smooth="yes"/>
      <point x="375" y="252"/>
      <point x="353" y="230"/>
      <point x="324" y="230" type="curve" smooth="yes"/>
      <point x="311" y="230" type="line" smooth="yes"/>
      <point x="282" y="230"/>
      <point x="260" y="208"/>
      <point x="260" y="179" type="curve" smooth="yes"/>
      <point x="260" y="166" type="line" smooth="yes"/>
      <point x="260" y="137"/>
      <point x="238" y="115"/>
      <point x="209" y="115" type="curve" smooth="yes"/>
      <point x="196" y="115" type="line" smooth="yes"/>
      <point x="167" y="115"/>
      <point x="145" y="137"/>
    </contour>
  </outline>
</glyph>
<glyph name="S" format="2">
  <advance width="520"/>
  <unicode hex="0053"/>
  <outline>
    <contour>
      <point x="30" y="179" type="curve" smooth="yes"/>
      <point x="30" y="166" type="line"/>
      <point x="30" y="137"/>
      <point x="52" y="115"/>
      <point x="81" y="115" type="curve" smooth="yes"/>
      <point x="94" y="115" type="line" smooth="yes"/>
      <point x="123" y="115"/>
      <point x="145" y="93"/>
      <point x="145" y="64" type="curve" smooth="yes"/>
      <point x="145" y="51" type="line" smooth="yes"/>
      <point x="145" y="22"/>
      <point x="167" y="0"/>
      <point x="196" y="0" type="curve" smooth="yes"/>
      <point x="439" y="0" type="line" smooth="yes"/>
      <point x="468" y="0"/>
      <point x="490" y="22"/>
      <point x="490" y="51" type="curve" smooth="yes"/>
      <point x="490" y="294" type="line" smooth="yes"/>
      <point x="490" y="323"/>
      <point x="468" y="345"/>
      <point x="439" y="345" type="curve" smooth="yes"/>
      <point x="426" y="345" type="line" smooth="yes"/>
      <point x="397" y="345"/>
      <point x="375" y="367"/>
      <point x="375" y="396" type="curve" smooth="yes"/>
      <point x="375" y="409" type="line" smooth="yes"/>
      <point x="375" y="438"/>
      <point x="353" y="460"/>
      <point x="324" y="460" type="curve" smooth="yes"/>
      <point x="311" y="460" type="line" smooth="yes"/>
      <point x="282" y="460"/>
      <point x="260" y="438"/>
      <point x="260" y="409" type="curve" smooth="yes"/>
      <point x="260" y="396" type="line" smooth="yes"/>
      <point x="260" y="367"/>
      <point x="238" y="345"/>
      <point x="209" y="345" type="curve" smooth="yes"/>
      <point x="196" y="345" type="line" smooth="yes"/>
      <point x="167" y="345"/>
      <point x="145" y="367"/>
      <point x="145" y="396" type="curve" smooth="yes"/>
      <point x="145" y="524" type="line" smooth="yes"/>
      <point x="145" y="553"/>
      <point x="167" y="575"/>
      <point x="196" y="575" type="curve" smooth="yes"/>
      <point x="439" y="575" type="line" smooth="yes"/>
      <point x="468" y="575"/>
      <point x="490" y="597"/>
      <point x="490" y="626" type="curve" smooth="yes"/>
      <point x="490" y="639" type="line" smooth="yes"/>
      <point x="490" y="668"/>
      <point x="468" y="690"/>
      <point x="439" y="690" type="curve" smooth="yes"/>
      <point x="196" y="690" type="line" smooth="yes"/>
      <point x="167" y="690"/>
      <point x="145" y="668"/>
      <point x="145" y="639" type="curve" smooth="yes"/>
      <point x="145" y="626" type="line" smooth="yes"/>
      <point x="145" y="597"/>
      <point x="123" y="575"/>
      <point x="94" y="575" type="curve" smooth="yes"/>
      <point x="81" y="575" type="line" smooth="yes"/>
      <point x="52" y="575"/>
      <point x="30" y="553"/>
      <point x="30" y="524" type="curve" smooth="yes"/>
      <point x="30" y="396" type="line" smooth="yes"/>
      <point x="30" y="367"/>
      <point x="52" y="345"/>
      <point x="81" y="345" type="curve" smooth="yes"/>
      <point x="94" y="345" type="line" smooth="yes"/>
      <point x="123" y="345"/>
      <point x="145" y="323"/>
      <point x="145" y="294" type="curve" smooth="yes"/>
      <point x="145" y="281" type="line" smooth="yes"/>
      <point x="145" y="252"/>
      <point x="167" y="230"/>
      <point x="196" y="230" type="curve" smooth="yes"/>
      <point x="209" y="230" type="line" smooth="yes"/>
      <point x="238" y="230"/>
      <point x="260" y="252"/>
      <point x="260" y="281" type="curve" smooth="yes"/>
      <point x="260" y="294" type="line" smooth="yes"/>
      <point x="260" y="323"/>
      <point x="282" y="345"/>
      <point x="311" y="345" type="curve" smooth="yes"/>
      <point x="324" y="345" type="line" smooth="yes"/>
      <point x="353" y="345"/>
      <point x="375" y="323"/>
      <point x="375" y="294" type="curve" smooth="yes"/>
      <point x="375" y="166" type="line" smooth="yes"/>
      <point x="375" y="137"/>
      <point x="353" y="115"/>
      <point x="324" y="115" type="curve" smooth="yes"/>
      <point x="196" y="115" type="line" smooth="yes"/>
      <point x="167" y="115"/>
      <point x="145" y="137"/>
      <point x="145" y="166" type="curve" smooth="yes"/>
      <point x="145" y="179" type="line" smooth="yes"/>
      <point x="145" y="208"/>
      <point x="123" y="230"/>
      <point x="94" y="230" type="curve" smooth="yes"/>
      <point x="81" y="230" type="line" smooth="yes"/>
      <point x="52" y="230"/>
      <point x="30" y="208"/>
    </contour>
  </outline>
</glyph>
<glyph name="U" format="2">
  <advance width="520"/>
  <unicode hex="0055"/>
  <outline>
    <contour>
      <point x="375" y="639" type="curve" smooth="yes"/>
      <point x="375" y="166" type="line" smooth="yes"/>
      <point x="375" y="137"/>
      <point x="353" y="115"/>
      <point x="324" y="115" type="curve" smooth="yes"/>
      <point x="196" y="115" type="line" smooth="yes"/>
      <point x="167" y="115"/>
      <point x="145" y="137"/>
      <point x="145" y="166" type="curve" smooth="yes"/>
      <point x="145" y="639" type="line" smooth="yes"/>
      <point x="145" y="668"/>
      <point x="123" y="690"/>
      <point x="94" y="690" type="curve" smooth="yes"/>
      <point x="81" y="690" type="line" smooth="yes"/>
      <point x="52" y="690"/>
      <point x="30" y="668"/>
      <point x="30" y="639" type="curve" smooth="yes"/>
      <point x="30" y="166" type="line" smooth="yes"/>
      <point x="30" y="137"/>
      <point x="52" y="115"/>
      <point x="81" y="115" type="curve" smooth="yes"/>
      <point x="94" y="115" type="line" smooth="yes"/>
      <point x="123" y="115"/>
      <point x="145" y="93"/>
      <point x="145" y="64" type="curve" smooth="yes"/>
      <point x="145" y="51" type="line" smooth="yes"/>
      <point x="145" y="22"/>
      <point x="167" y="0"/>
      <point x="196" y="0" type="curve" smooth="yes"/>
      <point x="439" y="0" type="line" smooth="yes"/>
      <point x="468" y="0"/>
      <point x="490" y="22"/>
      <point x="490" y="51" type="curve" smooth="yes"/>
      <point x="490" y="639" type="line" smooth="yes"/>
      <point x="490" y="668"/>
      <point x="468" y="690"/>
      <point x="439" y="690" type="curve" smooth="yes"/>
      <point x="426" y="690" type="line" smooth="yes"/>
      <point x="397" y="690"/>
      <point x="375" y="668"/>
    </contour>
  </outline>
</glyph>
<glyph name="W" format="2">
  <advance width="635"/>
  <unicode hex="0057"/>
  <outline>
    <contour>
      <point x="605" y="639" type="curve" smooth="yes"/>
      <point x="605" y="166" type="line" smooth="yes"/>
      <point x="605" y="137"/>
      <point x="584" y="115"/>
      <point x="555" y="115" type="curve" smooth="yes"/>
      <point x="540" y="115" type="line" smooth="yes"/>
      <point x="511" y="115"/>
      <point x="490" y="93"/>
      <point x="490" y="64" type="curve" smooth="yes"/>
      <point x="490" y="51" type="line" smooth="yes"/>
      <point x="490" y="22"/>
      <point x="469" y="0"/>
      <point x="440" y="0" type="curve" smooth="yes"/>
      <point x="425" y="0" type="line" smooth="yes"/>
      <point x="396" y="0"/>
      <point x="375" y="22"/>
      <point x="375" y="51" type="curve" smooth="yes"/>
      <point x="375" y="64" type="line" smooth="yes"/>
      <point x="375" y="93"/>
      <point x="354" y="115"/>
      <point x="325" y="115" type="curve" smooth="yes"/>
      <point x="310" y="115" type="line" smooth="yes"/>
      <point x="281" y="115"/>
      <point x="260" y="93"/>
      <point x="260" y="64" type="curve" smooth="yes"/>
      <point x="260" y="51" type="line" smooth="yes"/>
      <point x="260" y="22"/>
      <point x="239" y="0"/>
      <point x="210" y="0" type="curve" smooth="yes"/>
      <point x="195" y="0" type="line" smooth="yes"/>
      <point x="166" y="0"/>
      <point x="145" y="22"/>
      <point x="145" y="51" type="curve" smooth="yes"/>
      <point x="145" y="64" type="line" smooth="yes"/>
      <point x="145" y="93"/>
      <point x="124" y="115"/>
      <point x="95" y="115" type="curve" smooth="yes"/>
      <point x="80" y="115" type="line" smooth="yes"/>
      <point x="51" y="115"/>
      <point x="30" y="137"/>
      <point x="30" y="166" type="curve" smooth="yes"/>
      <point x="30" y="639" type="line" smooth="yes"/>
      <point x="30" y="668"/>
      <point x="51" y="690"/>
      <point x="80" y="690" type="curve" smooth="yes"/>
      <point x="95" y="690" type="line" smooth="yes"/>
      <point x="124" y="690"/>
      <point x="145" y="668"/>
      <point x="145" y="639" type="curve" smooth="yes"/>
      <point x="145" y="166" type="line" smooth="yes"/>
      <point x="145" y="137"/>
      <point x="166" y="115"/>
      <point x="195" y="115" type="curve" smooth="yes"/>
      <point x="210" y="115" type="line" smooth="yes"/>
      <point x="239" y="115"/>
      <point x="260" y="137"/>
      <point x="260" y="166" type="curve" smooth="yes"/>
      <point x="260" y="639" type="line" smooth="yes"/>
      <point x="260" y="668"/>
      <point x="281" y="690"/>
      <point x="310" y="690" type="curve" smooth="yes"/>
      <point x="325" y="690" type="line" smooth="yes"/>
      <point x="354" y="690"/>
      <point x="375" y="668"/>
      <point x="375" y="639" type="curve" smooth="yes"/>
      <point x="375" y="166" type="line" smooth="yes"/>
      <point x="375" y="137"/>
      <point x="396" y="115"/>
      <point x="425" y="115" type="curve" smooth="yes"/>
      <point x="440" y="115" type="line" smooth="yes"/>
      <point x="469" y="115"/>
      <point x="490" y="137"/>
      <point x="490" y="166" type="curve" smooth="yes"/>
      <point x="490" y="639" type="line" smooth="yes"/>
      <point x="490" y="668"/>
      <point x="511" y="690"/>
      <point x="540" y="690" type="curve" smooth="yes"/>
      <point x="555" y="690" type="line" smooth="yes"/>
      <point x="584" y="690"/>
      <point x="605" y="668"/>
    </contour>
  </outline>
</glyph>
<glyph name="X" format="2">
  <advance width="520"/>
  <unicode hex="0058"/>
  <outline>
    <contour>
      <point x="30" y="294" type="curve" smooth="yes"/>
      <point x="30" y="51" type="line"/>
      <point x="30" y="22"/>
      <point x="52" y="0"/>
      <point x="81" y="0" type="curve" smooth="yes"/>
      <point x="94" y="0" type="line" smooth="yes"/>
      <point x="123" y="0"/>
      <point x="145" y="22"/>
      <point x="145" y="51" type="curve" smooth="yes"/>
      <point x="145" y="294" type="line" smooth="yes"/>
      <point x="145" y="323"/>
      <point x="167" y="345"/>
      <point x="196" y="345" type="curve" smooth="yes"/>
      <point x="324" y="345" type="line" smooth="yes"/>
      <point x="349" y="345"/>
      <point x="375" y="323"/>
      <point x="375" y="294" type="curve" smooth="yes"/>
      <point x="375" y="51" type="line" smooth="yes"/>
      <point x="375" y="22"/>
      <point x="397" y="0"/>
      <point x="426" y="0" type="curve" smooth="yes"/>
      <point x="439" y="0" type="line" smooth="yes"/>
      <point x="468" y="0"/>
      <point x="490" y="22"/>
      <point x="490" y="51" type="curve" smooth="yes"/>
      <point x="490" y="294" type="line" smooth="yes"/>
      <point x="490" y="323"/>
      <point x="468" y="345"/>
      <point x="439" y="345" type="curve" smooth="yes"/>
      <point x="426" y="345" type="line" smooth="yes"/>
      <point x="397" y="345"/>
      <point x="375" y="367"/>
      <point x="375" y="396" type="curve" smooth="yes"/>
      <point x="375" y="409" type="line" smooth="yes"/>
      <point x="375" y="438"/>
      <point x="397" y="460"/>
      <point x="426" y="460" type="curve" smooth="yes"/>
      <point x="439" y="460" type="line" smooth="yes"/>
      <point x="468" y="460"/>
      <point x="490" y="482"/>
      <point x="490" y="511" type="curve" smooth="yes"/>
      <point x="490" y="639" type="line" smooth="yes"/>
      <point x="490" y="668"/>
      <point x="468" y="690"/>
      <point x="439" y="690" type="curve" smooth="yes"/>
      <point x="426" y="690" type="line" smooth="yes"/>
      <point x="397" y="690"/>
      <point x="375" y="668"/>
      <point x="375" y="639" type="curve" smooth="yes"/>
      <point x="375" y="511" type="line" smooth="yes"/>
      <point x="375" y="482"/>
      <point x="353" y="460"/>
      <point x="324" y="460" type="curve" smooth="yes"/>
      <point x="196" y="460" type="line" smooth="yes"/>
      <point x="167" y="460"/>
      <point x="145" y="482"/>
      <point x="145" y="511" type="curve" smooth="yes"/>
      <point x="145" y="639" type="line" smooth="yes"/>
      <point x="145" y="668"/>
      <point x="123" y="690"/>
      <point x="94" y="690" type="curve" smooth="yes"/>
      <point x="81" y="690" type="line" smooth="yes"/>
      <point x="53" y="690"/>
      <point x="30" y="668"/>
      <point x="30" y="639" type="curve" smooth="yes"/>
      <point x="30" y="511" type="line" smooth="yes"/>
      <point x="30" y="482"/>
      <point x="52" y="460"/>
      <point x="81" y="460" type="curve" smooth="yes"/>
      <point x="94" y="460" type="line" smooth="yes"/>
      <point x="123" y="460"/>
      <point x="145" y="438"/>
      <point x="145" y="409" type="curve" smooth="yes"/>
      <point x="145" y="396" type="line" smooth="yes"/>
      <point x="145" y="367"/>
      <point x="123" y="345"/>
      <point x="94" y="345" type="curve" smooth="yes"/>
      <point x="81" y="345" type="line" smooth="yes"/>
      <point x="52" y="345"/>
      <point x="30" y="323"/>
    </contour>
  </outline>
</glyph>
<glyph name="d" format="2">
  <advance width="405"/>
  <unicode hex="0064"/>
  <outline>
    <contour>
      <point x="94" y="460" type="curve" smooth="yes"/>
      <point x="81" y="460" type="line"/>
      <point x="52" y="460"/>
      <point x="30" y="438"/>
      <point x="30" y="409" type="curve" smooth="yes"/>
      <point x="30" y="166" type="line" smooth="yes"/>
      <point x="30" y="137"/>
      <point x="52" y="115"/>
      <point x="81" y="115" type="curve" smooth="yes"/>
      <point x="94" y="115" type="line" smooth="yes"/>
      <point x="123" y="115"/>
      <point x="145" y="93"/>
      <point x="145" y="64" type="curve" smooth="yes"/>
      <point x="145" y="51" type="line" smooth="yes"/>
      <point x="145" y="22"/>
      <point x="167" y="0"/>
      <point x="196" y="0" type="curve" smooth="yes"/>
      <point x="324" y="0" type="line" smooth="yes"/>
      <point x="353" y="0"/>
      <point x="375" y="22"/>
      <point x="375" y="51" type="curve" smooth="yes"/>
      <point x="375" y="409" type="line" smooth="yes"/>
      <point x="375" y="438"/>
      <point x="353" y="460"/>
      <point x="324" y="460" type="curve" smooth="yes"/>
      <point x="311" y="460" type="line" smooth="yes"/>
      <point x="282" y="460"/>
      <point x="260" y="482"/>
      <point x="260" y="511" type="curve" smooth="yes"/>
      <point x="260" y="524" type="line" smooth="yes"/>
      <point x="260" y="553"/>
      <point x="282" y="575"/>
      <point x="311" y="575" type="curve" smooth="yes"/>
      <point x="324" y="575" type="line" smooth="yes"/>
      <point x="353" y="575"/>
      <point x="375" y="597"/>
      <point x="375" y="626" type="curve" smooth="yes"/>
      <point x="375" y="754" type="line" smooth="yes"/>
      <point x="375" y="783"/>
      <point x="353" y="805"/>
      <point x="324" y="805" type="curve" smooth="yes"/>
      <point x="311" y="805" type="line" smooth="yes"/>
      <point x="282" y="805"/>
      <point x="260" y="783"/>
      <point x="260" y="754" type="curve" smooth="yes"/>
      <point x="260" y="626" type="line" smooth="yes"/>
      <point x="260" y="597"/>
      <point x="238" y="575"/>
      <point x="209" y="575" type="curve" smooth="yes"/>
      <point x="196" y="575" type="line" smooth="yes"/>
      <point x="167" y="575"/>
      <point x="145" y="553"/>
      <point x="145" y="524" type="curve" smooth="yes"/>
      <point x="145" y="511" type="line" smooth="yes"/>
      <point x="145" y="482"/>
      <point x="123" y="460"/>
    </contour>
    <contour>
      <point x="209" y="115" type="curve" smooth="yes"/>
      <point x="196" y="115" type="line"/>
      <point x="167" y="115"/>
      <point x="145" y="137"/>
      <point x="145" y="166" type="curve" smooth="yes"/>
      <point x="145" y="409" type="line" smooth="yes"/>
      <point x="145" y="438"/>
      <point x="167" y="460"/>
      <point x="196" y="460" type="curve" smooth="yes"/>
      <point x="209" y="460" type="line" smooth="yes"/>
      <point x="238" y="460"/>
      <point x="260" y="438"/>
      <point x="260" y="409" type="curve" smooth="yes"/>
      <point x="260" y="166" type="line" smooth="yes"/>
      <point x="260" y="137"/>
      <point x="238" y="115"/>
    </contour>
  </outline>
</glyph>
<glyph name="f" format="2">
  <advance width="405"/>
  <unicode hex="0066"/>
  <outline>
    <contour>
      <point x="308" y="575" type="curve" smooth="yes"/>
      <point x="330" y="575" type="line" smooth="yes"/>
      <point x="355" y="575"/>
      <point x="375" y="595"/>
      <point x="375" y="619" type="curve" smooth="yes"/>
      <point x="375" y="754" type="line" smooth="yes"/>
      <point x="375" y="783"/>
      <point x="353" y="805"/>
      <point x="324" y="805" type="curve" smooth="yes"/>
      <point x="196" y="805" type="line" smooth="yes"/>
      <point x="167" y="805"/>
      <point x="145" y="783"/>
      <point x="145" y="754" type="curve" smooth="yes"/>
      <point x="145" y="741" type="line" smooth="yes"/>
      <point x="145" y="712"/>
      <point x="123" y="690"/>
      <point x="94" y="690" type="curve" smooth="yes"/>
      <point x="81" y="690" type="line" smooth="yes"/>
      <point x="52" y="690"/>
      <point x="30" y="668"/>
      <point x="30" y="639" type="curve" smooth="yes"/>
      <point x="30" y="626" type="line" smooth="yes"/>
      <point x="30" y="597"/>
      <point x="52" y="575"/>
      <point x="81" y="575" type="curve" smooth="yes"/>
      <point x="94" y="575" type="line" smooth="yes"/>
      <point x="123" y="575"/>
      <point x="145" y="553"/>
      <point x="145" y="524" type="curve" smooth="yes"/>
      <point x="145" y="511" type="line" smooth="yes"/>
      <point x="145" y="482"/>
      <point x="123" y="460"/>
      <point x="94" y="460" type="curve" smooth="yes"/>
      <point x="81" y="460" type="line" smooth="yes"/>
      <point x="52" y="460"/>
      <point x="30" y="438"/>
      <point x="30" y="409" type="curve" smooth="yes"/>
      <point x="30" y="42" type="line" smooth="yes"/>
      <point x="30" y="19"/>
      <point x="49" y="0"/>
      <point x="73" y="0" type="curve" smooth="yes"/>
      <point x="102" y="0" type="line" smooth="yes"/>
      <point x="126" y="0"/>
      <point x="145" y="19"/>
      <point x="145" y="42" type="curve" smooth="yes"/>
      <point x="145" y="409" type="line" smooth="yes"/>
      <point x="145" y="438"/>
      <point x="167" y="460"/>
      <point x="196" y="460" type="curve" smooth="yes"/>
      <point x="216" y="460" type="line" smooth="yes"/>
      <point x="245" y="460"/>
      <point x="260" y="479"/>
      <point x="260" y="503" type="curve" smooth="yes"/>
      <point x="260" y="530" type="line" smooth="yes"/>
      <point x="260" y="552"/>
      <point x="245" y="575"/>
      <point x="217" y="575" type="curve" smooth="yes"/>
      <point x="196" y="575" type="line" smooth="yes"/>
      <point x="167" y="575"/>
      <point x="145" y="597"/>
      <point x="145" y="626" type="curve" smooth="yes"/>
      <point x="145" y="638" type="line" smooth="yes"/>
      <point x="145" y="668"/>
      <point x="167" y="690"/>
      <point x="197" y="690" type="curve" smooth="yes"/>
      <point x="210" y="690" type="line" smooth="yes"/>
      <point x="239" y="690"/>
      <point x="260" y="668"/>
      <point x="260" y="639" type="curve" smooth="yes"/>
      <point x="260" y="619" type="line" smooth="yes"/>
      <point x="260" y="595"/>
      <point x="282" y="575"/>
    </contour>
  </outline>
</glyph>
<glyph name="g" format="2">
  <advance width="405"/>
  <unicode hex="0067"/>
  <outline>
    <contour>
      <point x="30" y="-52" type="curve" smooth="yes"/>
      <point x="30" y="-64" type="line" smooth="yes"/>
      <point x="30" y="-93"/>
      <point x="52" y="-115"/>
      <point x="81" y="-115" type="curve" smooth="yes"/>
      <point x="209" y="-115" type="line" smooth="yes"/>
      <point x="238" y="-115"/>
      <point x="260" y="-94"/>
      <point x="260" y="-65" type="curve" smooth="yes"/>
      <point x="260" y="-52" type="line" smooth="yes"/>
      <point x="260" y="-23"/>
      <point x="282" y="0"/>
      <point x="311" y="0" type="curve" smooth="yes"/>
      <point x="324" y="0" type="line" smooth="yes"/>
      <point x="353" y="0"/>
      <point x="375" y="22"/>
      <point x="375" y="51" type="curve" smooth="yes"/>
      <point x="375" y="64" type="line" smooth="yes"/>
      <point x="375" y="93"/>
      <point x="353" y="115"/>
      <point x="324" y="115" type="curve" smooth="yes"/>
      <point x="311" y="115" type="line" smooth="yes"/>
      <point x="282" y="115"/>
      <point x="260" y="137"/>
      <point x="260" y="166" type="curve" smooth="yes"/>
      <point x="260" y="179" type="line" smooth="yes"/>
      <point x="260" y="208"/>
      <point x="282" y="230"/>
      <point x="311" y="230" type="curve" smooth="yes"/>
      <point x="324" y="230" type="line" smooth="yes"/>
      <point x="353" y="230"/>
      <point x="375" y="252"/>
      <point x="375" y="281" type="curve" smooth="yes"/>
      <point x="375" y="524" type="line" smooth="yes"/>
      <point x="375" y="553"/>
      <point x="353" y="575"/>
      <point x="324" y="575" type="curve" smooth="yes"/>
      <point x="197" y="575" type="line" smooth="yes"/>
      <point x="168" y="575"/>
      <point x="145" y="553"/>
      <point x="145" y="524" type="curve" smooth="yes"/>
      <point x="145" y="511" type="line" smooth="yes"/>
      <point x="145" y="482"/>
      <point x="123" y="460"/>
      <point x="94" y="460" type="curve" smooth="yes"/>
      <point x="81" y="460" type="line" smooth="yes"/>
      <point x="52" y="460"/>
      <point x="30" y="438"/>
      <point x="30" y="409" type="curve" smooth="yes"/>
      <point x="30" y="166" type="line" smooth="yes"/>
      <point x="30" y="137"/>
      <point x="52" y="115"/>
      <point x="81" y="115" type="curve" smooth="yes"/>
      <point x="209" y="115" type="line" smooth="yes"/>
      <point x="238" y="115"/>
      <point x="260" y="93"/>
      <point x="260" y="64" type="curve" smooth="yes"/>
      <point x="260" y="51" type="line" smooth="yes"/>
      <point x="260" y="22"/>
      <point x="238" y="0"/>
      <point x="209" y="0" type="curve" smooth="yes"/>
      <point x="81" y="0" type="line" smooth="yes"/>
      <point x="52" y="0"/>
      <point x="30" y="-23"/>
    </contour>
    <contour>
      <point x="145" y="277" type="curve" smooth="yes"/>
      <point x="145" y="409" type="line" smooth="yes"/>
      <point x="145" y="438"/>
      <point x="167" y="460"/>
      <point x="196" y="460" type="curve" smooth="yes"/>
      <point x="209" y="460" type="line" smooth="yes"/>
      <point x="238" y="460"/>
      <point x="260" y="438"/>
      <point x="260" y="409" type="curve" smooth="yes"/>
      <point x="260" y="277" type="line" smooth="yes"/>
      <point x="260" y="248"/>
      <point x="238" y="230"/>
      <point x="209" y="230" type="curve" smooth="yes"/>
      <point x="196" y="230" type="line" smooth="yes"/>
      <point x="167" y="230"/>
      <point x="145" y="248"/>
    </contour>
  </outline>
</glyph>
<glyph name="h" format="2">
  <advance width="405"/>
  <unicode hex="0068"/>
  <outline>
    <contour>
      <point x="30" y="754" type="curve" smooth="yes"/>
      <point x="30" y="51" type="line" smooth="yes"/>
      <point x="30" y="22"/>
      <point x="52" y="0"/>
      <point x="81" y="0" type="curve" smooth="yes"/>
      <point x="94" y="0" type="line" smooth="yes"/>
      <point x="123" y="0"/>
      <point x="145" y="22"/>
      <point x="145" y="51" type="curve" smooth="yes"/>
      <point x="145" y="413" type="line" smooth="yes"/>
      <point x="145" y="442"/>
      <point x="167" y="460"/>
      <point x="196" y="460" type="curve" smooth="yes"/>
      <point x="209" y="460" type="line" smooth="yes"/>
      <point x="238" y="460"/>
      <point x="260" y="442"/>
      <point x="260" y="413" type="curve" smooth="yes"/>
      <point x="260" y="51" type="line" smooth="yes"/>
      <point x="260" y="22"/>
      <point x="282" y="0"/>
      <point x="311" y="0" type="curve" smooth="yes"/>
      <point x="324" y="0" type="line" smooth="yes"/>
      <point x="353" y="0"/>
      <point x="375" y="22"/>
      <point x="375" y="51" type="curve" smooth="yes"/>
      <point x="375" y="413" type="line" smooth="yes"/>
      <point x="375" y="442"/>
      <point x="353" y="460"/>
      <point x="324" y="460" type="curve" smooth="yes"/>
      <point x="311" y="460" type="line" smooth="yes"/>
      <point x="282" y="460"/>
      <point x="260" y="486"/>
      <point x="260" y="515" type="curve" smooth="yes"/>
      <point x="260" y="528" type="line" smooth="yes"/>
      <point x="260" y="557"/>
      <point x="237" y="575"/>
      <point x="208" y="575" type="curve" smooth="yes"/>
      <point x="196" y="575" type="line" smooth="yes"/>
      <point x="167" y="575"/>
      <point x="145" y="597"/>
      <point x="145" y="626" type="curve" smooth="yes"/>
      <point x="145" y="754" type="line" smooth="yes"/>
      <point x="145" y="783"/>
      <point x="123" y="805"/>
      <point x="94" y="805" type="curve" smooth="yes"/>
      <point x="81" y="805" type="line" smooth="yes"/>
      <point x="52" y="805"/>
      <point x="30" y="783"/>
    </contour>
  </outline>
</glyph>
<glyph name="i" format="2">
  <advance width="175"/>
  <unicode hex="0069"/>
  <outline>
    <contour>
      <point x="30" y="409" type="curve" smooth="yes"/>
      <point x="30" y="51" type="line" smooth="yes"/>
      <point x="30" y="22"/>
      <point x="52" y="0"/>
      <point x="81" y="0" type="curve" smooth="yes"/>
      <point x="94" y="0" type="line" smooth="yes"/>
      <point x="123" y="0"/>
      <point x="145" y="22"/>
      <point x="145" y="51" type="curve" smooth="yes"/>
      <point x="145" y="409" type="line" smooth="yes"/>
      <point x="145" y="438"/>
      <point x="123" y="460"/>
      <point x="94" y="460" type="curve" smooth="yes"/>
      <point x="81" y="460" type="line" smooth="yes"/>
      <point x="52" y="460"/>
      <point x="30" y="438"/>
    </contour>
    <contour>
      <point x="30" y="639" type="curve" smooth="yes"/>
      <point x="30" y="626" type="line" smooth="yes"/>
      <point x="30" y="597"/>
      <point x="52" y="575"/>
      <point x="81" y="575" type="curve" smooth="yes"/>
      <point x="94" y="575" type="line" smooth="yes"/>
      <point x="123" y="575"/>
      <point x="145" y="597"/>
      <point x="145" y="626" type="curve" smooth="yes"/>
      <point x="145" y="639" type="line" smooth="yes"/>
      <point x="145" y="668"/>
      <point x="123" y="690"/>
      <point x="94" y="690" type="curve" smooth="yes"/>
      <point x="81" y="690" type="line" smooth="yes"/>
      <point x="52" y="690"/>
      <point x="30" y="668"/>
    </contour>
  </outline>
</glyph>
<glyph name="j" format="2">
  <advance width="375"/>
  <unicode hex="006A"/>
  <outline>
    <contour>
      <point x="179" y="0" type="curve" smooth="yes"/>
      <point x="51" y="0" type="line" smooth="yes"/>
      <point x="22" y="0"/>
      <point x="0" y="-22"/>
      <point x="0" y="-51" type="curve" smooth="yes"/>
      <point x="0" y="-64" type="line" smooth="yes"/>
      <point x="0" y="-93"/>
      <point x="22" y="-115"/>
      <point x="51" y="-115" type="curve" smooth="yes"/>
      <point x="179" y="-115" type="line" smooth="yes"/>
      <point x="208" y="-115"/>
      <point x="230" y="-93"/>
      <point x="230" y="-64" type="curve" smooth="yes"/>
      <point x="230" y="-51" type="line" smooth="yes"/>
      <point x="230" y="-22"/>
      <point x="252" y="0"/>
      <point x="281" y="0" type="curve" smooth="yes"/>
      <point x="294" y="0" type="line" smooth="yes"/>
      <point x="323" y="0"/>
      <point x="345" y="22"/>
      <point x="345" y="51" type="curve" smooth="yes"/>
      <point x="345" y="409" type="line" smooth="yes"/>
      <point x="345" y="438"/>
      <point x="323" y="460"/>
      <point x="294" y="460" type="curve" smooth="yes"/>
      <point x="281" y="460" type="line" smooth="yes"/>
      <point x="252" y="460"/>
      <point x="230" y="438"/>
      <point x="230" y="409" type="curve" smooth="yes"/>
      <point x="230" y="51" type="line" smooth="yes"/>
      <point x="230" y="22"/>
      <point x="208" y="0"/>
    </contour>
    <contour>
      <point x="229" y="639" type="curve" smooth="yes"/>
      <point x="229" y="626" type="line" smooth="yes"/>
      <point x="229" y="597"/>
      <point x="251" y="575"/>
      <point x="280" y="575" type="curve" smooth="yes"/>
      <point x="293" y="575" type="line" smooth="yes"/>
      <point x="322" y="575"/>
      <point x="344" y="597"/>
      <point x="344" y="626" type="curve" smooth="yes"/>
      <point x="344" y="639" type="line" smooth="yes"/>
      <point x="344" y="668"/>
      <point x="322" y="690"/>
      <point x="293" y="690" type="curve" smooth="yes"/>
      <point x="280" y="690" type="line" smooth="yes"/>
      <point x="251" y="690"/>
      <point x="229" y="668"/>
    </contour>
  </outline>
</glyph>
<glyph name="q" format="2">
  <advance width="520"/>
  <unicode hex="0071"/>
  <outline>
    <contour>
      <point x="324" y="460" type="curve" smooth="yes"/>
      <point x="311" y="460" type="line" smooth="yes"/>
      <point x="282" y="460"/>
      <point x="260" y="482"/>
      <point x="260" y="511" type="curve" smooth="yes"/>
      <point x="260" y="524" type="line" smooth="yes"/>
      <point x="260" y="553"/>
      <point x="238" y="575"/>
      <point x="209" y="575" type="curve" smooth="yes"/>
      <point x="197" y="575" type="line" smooth="yes"/>
      <point x="168" y="575"/>
      <point x="145" y="553"/>
      <point x="145" y="524" type="curve" smooth="yes"/>
      <point x="145" y="511" type="line" smooth="yes"/>
      <point x="145" y="482"/>
      <point x="123" y="460"/>
      <point x="94" y="460" type="curve" smooth="yes"/>
      <point x="81" y="460" type="line" smooth="yes"/>
      <point x="52" y="460"/>
      <point x="30" y="438"/>
      <point x="30" y="409" type="curve" smooth="yes"/>
      <point x="30" y="162" type="line" smooth="yes"/>
      <point x="30" y="133"/>
      <point x="52" y="114"/>
      <point x="81" y="114" type="curve" smooth="yes"/>
      <point x="94" y="114" type="line" smooth="yes"/>
      <point x="123" y="114"/>
      <point x="145" y="89"/>
      <point x="145" y="60" type="curve" smooth="yes"/>
      <point x="145" y="47" type="line" smooth="yes"/>
      <point x="145" y="18"/>
      <point x="168" y="0"/>
      <point x="197" y="0" type="curve" smooth="yes"/>
      <point x="209" y="0" type="line" smooth="yes"/>
      <point x="238" y="0"/>
      <point x="260" y="22"/>
      <point x="260" y="51" type="curve" smooth="yes"/>
      <point x="260" y="63" type="line" smooth="yes"/>
      <point x="260" y="92"/>
      <point x="282" y="114"/>
      <point x="311" y="114" type="curve" smooth="yes"/>
      <point x="324" y="114" type="line" smooth="yes"/>
      <point x="353" y="114"/>
      <point x="375" y="92"/>
      <point x="375" y="63" type="curve" smooth="yes"/>
      <point x="375" y="-179" type="line" smooth="yes"/>
      <point x="375" y="-208"/>
      <point x="397" y="-230"/>
      <point x="426" y="-230" type="curve" smooth="yes"/>
      <point x="439" y="-230" type="line" smooth="yes"/>
      <point x="468" y="-230"/>
      <point x="490" y="-208"/>
      <point x="490" y="-179" type="curve" smooth="yes"/>
      <point x="490" y="64" type="line" smooth="yes"/>
      <point x="490" y="93"/>
      <point x="468" y="114"/>
      <point x="439" y="114" type="curve" smooth="yes"/>
      <point x="426" y="114" type="line" smooth="yes"/>
      <point x="397" y="114"/>
      <point x="375" y="137"/>
      <point x="375" y="166" type="curve" smooth="yes"/>
      <point x="375" y="409" type="line" smooth="yes"/>
      <point x="375" y="438"/>
      <point x="353" y="460"/>
    </contour>
    <contour>
      <point x="260" y="409" type="curve" smooth="yes"/>
      <point x="260" y="162" type="line" smooth="yes"/>
      <point x="260" y="133"/>
      <point x="238" y="114"/>
      <point x="209" y="114" type="curve" smooth="yes"/>
      <point x="196" y="114" type="line" smooth="yes"/>
      <point x="167" y="114"/>
      <point x="145" y="133"/>
      <point x="145" y="162" type="curve" smooth="yes"/>
      <point x="145" y="409" type="line" smooth="yes"/>
      <point x="145" y="438"/>
      <point x="167" y="460"/>
      <point x="196" y="460" type="curve" smooth="yes"/>
      <point x="209" y="460" type="line" smooth="yes"/>
      <point x="238" y="460"/>
      <point x="260" y="438"/>
    </contour>
  </outline>
</glyph>
<glyph name="r" format="2">
  <advance width="520"/>
  <unicode hex="0072"/>
  <outline>
    <contour>
      <point x="30" y="511" type="curve" smooth="yes"/>
      <point x="30" y="524" type="line" smooth="yes"/>
      <point x="30" y="553"/>
      <point x="52" y="575"/>
      <point x="81" y="575" type="curve" smooth="yes"/>
      <point x="94" y="575" type="line" smooth="yes"/>
      <point x="123" y="575"/>
      <point x="145" y="553"/>
      <point x="145" y="524" type="curve" smooth="yes"/>
      <point x="145" y="511" type="line" smooth="yes"/>
      <point x="145" y="482"/>
      <point x="167" y="460"/>
      <point x="196" y="460" type="curve" smooth="yes"/>
      <point x="209" y="460" type="line" smooth="yes"/>
      <point x="238" y="460"/>
      <point x="260" y="482"/>
      <point x="260" y="511" type="curve" smooth="yes"/>
      <point x="260" y="524" type="line" smooth="yes"/>
      <point x="260" y="553"/>
      <point x="282" y="575"/>
      <point x="311" y="575" type="curve" smooth="yes"/>
      <point x="439" y="575" type="line" smooth="yes"/>
      <point x="468" y="575"/>
      <point x="490" y="553"/>
      <point x="490" y="524" type="curve" smooth="yes"/>
      <point x="490" y="396" type="line" smooth="yes"/>
      <point x="490" y="367"/>
      <point x="468" y="345"/>
      <point x="439" y="345" type="curve" smooth="yes"/>
      <point x="426" y="345" type="line" smooth="yes"/>
      <point x="397" y="345"/>
      <point x="375" y="367"/>
      <point x="375" y="396" type="curve" smooth="yes"/>
      <point x="375" y="409" type="line" smooth="yes"/>
      <point x="375" y="438"/>
      <point x="353" y="460"/>
      <point x="324" y="460" type="curve" smooth="yes"/>
      <point x="311" y="460" type="line" smooth="yes"/>
      <point x="282" y="460"/>
      <point x="260" y="437"/>
      <point x="260" y="409" type="curve" smooth="yes"/>
      <point x="260" y="51" type="line" smooth="yes"/>
      <point x="260" y="22"/>
      <point x="238" y="0"/>
      <point x="209" y="0" type="curve" smooth="yes"/>
      <point x="196" y="0" type="line" smooth="yes"/>
      <point x="167" y="0"/>
      <point x="145" y="22"/>
      <point x="145" y="51" type="curve" smooth="yes"/>
      <point x="145" y="409" type="line" smooth="yes"/>
      <point x="145" y="437"/>
      <point x="123" y="460"/>
      <point x="94" y="460" type="curve" smooth="yes"/>
      <point x="81" y="460" type="line" smooth="yes"/>
      <point x="52" y="460"/>
      <point x="30" y="482"/>
    </contour>
  </outline>
</glyph>
<glyph name="v" format="2">
  <advance width="415"/>
  <unicode hex="0076"/>
  <outline>
    <contour>
      <point x="35" y="524" type="curve" smooth="yes"/>
      <point x="35" y="162" type="line"/>
      <point x="35" y="133"/>
      <point x="57" y="115"/>
      <point x="86" y="115" type="curve" smooth="yes"/>
      <point x="99" y="115" type="line" smooth="yes"/>
      <point x="128" y="115"/>
      <point x="150" y="89"/>
      <point x="150" y="60" type="curve" smooth="yes"/>
      <point x="150" y="47" type="line" smooth="yes"/>
      <point x="150" y="18"/>
      <point x="173" y="0"/>
      <point x="202" y="0" type="curve" smooth="yes"/>
      <point x="214" y="0" type="line" smooth="yes"/>
      <point x="243" y="0"/>
      <point x="265" y="22"/>
      <point x="265" y="51" type="curve" smooth="yes"/>
      <point x="265" y="64" type="line" smooth="yes"/>
      <point x="265" y="93"/>
      <point x="287" y="115"/>
      <point x="316" y="115" type="curve" smooth="yes"/>
      <point x="329" y="115" type="line" smooth="yes"/>
      <point x="358" y="115"/>
      <point x="380" y="137"/>
      <point x="380" y="166" type="curve" smooth="yes"/>
      <point x="380" y="524" type="line" smooth="yes"/>
      <point x="380" y="553"/>
      <point x="358" y="575"/>
      <point x="329" y="575" type="curve" smooth="yes"/>
      <point x="316" y="575" type="line" smooth="yes"/>
      <point x="287" y="575"/>
      <point x="265" y="553"/>
      <point x="265" y="524" type="curve" smooth="yes"/>
      <point x="265" y="162" type="line" smooth="yes"/>
      <point x="265" y="133"/>
      <point x="243" y="115"/>
      <point x="214" y="115" type="curve" smooth="yes"/>
      <point x="201" y="115" type="line" smooth="yes"/>
      <point x="172" y="115"/>
      <point x="150" y="133"/>
      <point x="150" y="162" type="curve" smooth="yes"/>
      <point x="150" y="524" type="line" smooth="yes"/>
      <point x="150" y="553"/>
      <point x="128" y="575"/>
      <point x="99" y="575" type="curve" smooth="yes"/>
      <point x="86" y="575" type="line" smooth="yes"/>
      <point x="57" y="575"/>
      <point x="35" y="553"/>
    </contour>
  </outline>
</glyph>
<glyph name="w" format="2">
  <advance width="634"/>
  <unicode hex="0077"/>
  <outline>
    <contour>
      <point x="30" y="51" type="curve" smooth="yes"/>
      <point x="30" y="524" type="line"/>
      <point x="30" y="553"/>
      <point x="50" y="575"/>
      <point x="79" y="575" type="curve" smooth="yes"/>
      <point x="94" y="575" type="line" smooth="yes"/>
      <point x="123" y="575"/>
      <point x="144" y="553"/>
      <point x="144" y="524" type="curve" smooth="yes"/>
      <point x="144" y="166" type="line" smooth="yes"/>
      <point x="144" y="137"/>
      <point x="165" y="115"/>
      <point x="194" y="115" type="curve" smooth="yes"/>
      <point x="209" y="115" type="line" smooth="yes"/>
      <point x="238" y="115"/>
      <point x="259" y="137"/>
      <point x="259" y="166" type="curve" smooth="yes"/>
      <point x="259" y="524" type="line" smooth="yes"/>
      <point x="259" y="553"/>
      <point x="280" y="575"/>
      <point x="309" y="575" type="curve" smooth="yes"/>
      <point x="324" y="575" type="line" smooth="yes"/>
      <point x="353" y="575"/>
      <point x="374" y="553"/>
      <point x="374" y="524" type="curve" smooth="yes"/>
      <point x="374" y="166" type="line" smooth="yes"/>
      <point x="374" y="137"/>
      <point x="395" y="115"/>
      <point x="424" y="115" type="curve" smooth="yes"/>
      <point x="439" y="115" type="line" smooth="yes"/>
      <point x="468" y="115"/>
      <point x="489" y="137"/>
      <point x="489" y="166" type="curve" smooth="yes"/>
      <point x="489" y="524" type="line" smooth="yes"/>
      <point x="489" y="553"/>
      <point x="510" y="575"/>
      <point x="539" y="575" type="curve" smooth="yes"/>
      <point x="554" y="575" type="line" smooth="yes"/>
      <point x="583" y="575"/>
      <point x="604" y="553"/>
      <point x="604" y="524" type="curve" smooth="yes"/>
      <point x="604" y="166" type="line" smooth="yes"/>
      <point x="604" y="137"/>
      <point x="583" y="115"/>
      <point x="554" y="115" type="curve" smooth="yes"/>
      <point x="539" y="115" type="line" smooth="yes"/>
      <point x="510" y="115"/>
      <point x="489" y="93"/>
      <point x="489" y="64" type="curve" smooth="yes"/>
      <point x="489" y="51" type="line" smooth="yes"/>
      <point x="489" y="22"/>
      <point x="468" y="0"/>
      <point x="439" y="0" type="curve" smooth="yes"/>
      <point x="424" y="0" type="line" smooth="yes"/>
      <point x="395" y="0"/>
      <point x="374" y="22"/>
      <point x="374" y="51" type="curve" smooth="yes"/>
      <point x="374" y="64" type="line" smooth="yes"/>
      <point x="374" y="93"/>
      <point x="353" y="115"/>
      <point x="324" y="115" type="curve" smooth="yes"/>
      <point x="309" y="115" type="line" smooth="yes"/>
      <point x="280" y="115"/>
      <point x="259" y="93"/>
      <point x="259" y="64" type="curve" smooth="yes"/>
      <point x="259" y="51" type="line" smooth="yes"/>
      <point x="259" y="22"/>
      <point x="238" y="0"/>
      <point x="209" y="0" type="curve" smooth="yes"/>
      <point x="81" y="0" type="line" smooth="yes"/>
      <point x="52" y="0"/>
      <point x="30" y="21"/>
    </contour>
  </outline>
</glyph>
<glyph name="z" format="2">
  <advance width="405"/>
  <unicode hex="007A"/>
  <outline>
    <contour>
      <point x="375" y="51" type="curve" smooth="yes"/>
      <point x="375" y="64" type="line"/>
      <point x="375" y="93"/>
      <point x="353" y="115"/>
      <point x="324" y="115" type="curve" smooth="yes"/>
      <point x="196" y="115" type="line" smooth="yes"/>
      <point x="167" y="115"/>
      <point x="145" y="137"/>
      <point x="145" y="166" type="curve" smooth="yes"/>
      <point x="145" y="180" type="line" smooth="yes"/>
      <point x="145" y="209"/>
      <point x="167" y="230"/>
      <point x="196" y="230" type="curve" smooth="yes"/>
      <point x="209" y="230" type="line" smooth="yes"/>
      <point x="238" y="230"/>
      <point x="260" y="253"/>
      <point x="260" y="282" type="curve" smooth="yes"/>
      <point x="260" y="295" type="line" smooth="yes"/>
      <point x="260" y="324"/>
      <point x="282" y="345"/>
      <point x="311" y="345" type="curve" smooth="yes"/>
      <point x="324" y="345" type="line" smooth="yes"/>
      <point x="353" y="345"/>
      <point x="375" y="368"/>
      <point x="375" y="397" type="curve" smooth="yes"/>
      <point x="375" y="524" type="line" smooth="yes"/>
      <point x="375" y="553"/>
      <point x="353" y="575"/>
      <point x="324" y="575" type="curve" smooth="yes"/>
      <point x="81" y="575" type="line" smooth="yes"/>
      <point x="52" y="575"/>
      <point x="30" y="554"/>
      <point x="30" y="525" type="curve" smooth="yes"/>
      <point x="30" y="512" type="line" smooth="yes"/>
      <point x="30" y="483"/>
      <point x="52" y="460"/>
      <point x="81" y="460" type="curve" smooth="yes"/>
      <point x="209" y="460" type="line" smooth="yes"/>
      <point x="238" y="460"/>
      <point x="260" y="438"/>
      <point x="260" y="410" type="curve" smooth="yes"/>
      <point x="260" y="397" type="line" smooth="yes"/>
      <point x="260" y="368"/>
      <point x="238" y="345"/>
      <point x="209" y="345" type="curve" smooth="yes"/>
      <point x="196" y="345" type="line" smooth="yes"/>
      <point x="167" y="345"/>
      <point x="145" y="324"/>
      <point x="145" y="295" type="curve" smooth="yes"/>
      <point x="145" y="282" type="line" smooth="yes"/>
      <point x="145" y="253"/>
      <point x="123" y="230"/>
      <point x="94" y="230" type="curve" smooth="yes"/>
      <point x="81" y="230" type="line"/>
      <point x="52" y="230"/>
      <point x="30" y="209"/>
      <point x="30" y="180" type="curve" smooth="yes"/>
      <point x="30" y="51" type="line" smooth="yes"/>
      <point x="30" y="22"/>
      <point x="52" y="0"/>
      <point x="81" y="0" type="curve" smooth="yes"/>
      <point x="324" y="0" type="line" smooth="yes"/>
      <point x="353" y="0"/>
      <point x="375" y="22"/>
    </contour>
  </outline>
</glyph>
<glyph name="f_f" format="2">
  <advance width="636"/>
  <outline>
    <contour>
      <point x="30" y="409" type="curve" smooth="yes"/>
      <point x="30" y="42" type="line"/>
      <point x="30" y="19"/>
      <point x="49" y="0"/>
      <point x="73" y="0" type="curve" smooth="yes"/>
      <point x="102" y="0" type="line" smooth="yes"/>
      <point x="126" y="0"/>
      <point x="145" y="19"/>
      <point x="145" y="42" type="curve" smooth="yes"/>
      <point x="145" y="409" type="line" smooth="yes"/>
      <point x="145" y="438"/>
      <point x="167" y="460"/>
      <point x="196" y="460" type="curve" smooth="yes"/>
      <point x="216" y="460" type="line" smooth="yes"/>
      <point x="245" y="460"/>
      <point x="260" y="479"/>
      <point x="260" y="503" type="curve" smooth="yes"/>
      <point x="260" y="530" type="line" smooth="yes"/>
      <point x="260" y="552"/>
      <point x="245" y="575"/>
      <point x="217" y="575" type="curve" smooth="yes"/>
      <point x="196" y="575" type="line" smooth="yes"/>
      <point x="167" y="575"/>
      <point x="145" y="597"/>
      <point x="145" y="626" type="curve" smooth="yes"/>
      <point x="145" y="638" type="line" smooth="yes"/>
      <point x="145" y="668"/>
      <point x="167" y="690"/>
      <point x="197" y="690" type="curve" smooth="yes"/>
      <point x="210" y="690" type="line" smooth="yes"/>
      <point x="239" y="690"/>
      <point x="261" y="668"/>
      <point x="261" y="639" type="curve" smooth="yes"/>
      <point x="261" y="626" type="line" smooth="yes"/>
      <point x="261" y="597"/>
      <point x="283" y="575"/>
      <point x="312" y="575" type="curve" smooth="yes"/>
      <point x="325" y="575" type="line" smooth="yes"/>
      <point x="354" y="575"/>
      <point x="376" y="553"/>
      <point x="376" y="524" type="curve" smooth="yes"/>
      <point x="376" y="511" type="line" smooth="yes"/>
      <point x="376" y="482"/>
      <point x="354" y="460"/>
      <point x="325" y="460" type="curve" smooth="yes"/>
      <point x="312" y="460" type="line" smooth="yes"/>
      <point x="283" y="460"/>
      <point x="261" y="438"/>
      <point x="261" y="409" type="curve" smooth="yes"/>
      <point x="261" y="42" type="line" smooth="yes"/>
      <point x="261" y="19"/>
      <point x="280" y="0"/>
      <point x="304" y="0" type="curve" smooth="yes"/>
      <point x="333" y="0" type="line" smooth="yes"/>
      <point x="357" y="0"/>
      <point x="376" y="19"/>
      <point x="376" y="42" type="curve" smooth="yes"/>
      <point x="376" y="409" type="line" smooth="yes"/>
      <point x="376" y="438"/>
      <point x="398" y="460"/>
      <point x="427" y="460" type="curve" smooth="yes"/>
      <point x="447" y="460" type="line" smooth="yes"/>
      <point x="476" y="460"/>
      <point x="491" y="479"/>
      <point x="491" y="503" type="curve" smooth="yes"/>
      <point x="491" y="530" type="line" smooth="yes"/>
      <point x="491" y="552"/>
      <point x="476" y="575"/>
      <point x="448" y="575" type="curve" smooth="yes"/>
      <point x="427" y="575" type="line" smooth="yes"/>
      <point x="398" y="575"/>
      <point x="376" y="597"/>
      <point x="376" y="626" type="curve" smooth="yes"/>
      <point x="376" y="638" type="line" smooth="yes"/>
      <point x="376" y="668"/>
      <point x="398" y="690"/>
      <point x="428" y="690" type="curve" smooth="yes"/>
      <point x="440" y="690" type="line" smooth="yes"/>
      <point x="469" y="690"/>
      <point x="491" y="668"/>
      <point x="491" y="639" type="curve" smooth="yes"/>
      <point x="491" y="626" type="line" smooth="yes"/>
      <point x="491" y="597"/>
      <point x="513" y="575"/>
      <point x="542" y="575" type="curve" smooth="yes"/>
      <point x="555" y="575" type="line" smooth="yes"/>
      <point x="584" y="575"/>
      <point x="606" y="597"/>
      <point x="606" y="626" type="curve" smooth="yes"/>
      <point x="606" y="754" type="line" smooth="yes"/>
      <point x="606" y="783"/>
      <point x="584" y="805"/>
      <point x="555" y="805" type="curve" smooth="yes"/>
      <point x="427" y="805" type="line" smooth="yes"/>
      <point x="398" y="805"/>
      <point x="376" y="783"/>
      <point x="376" y="754" type="curve" smooth="yes"/>
      <point x="376" y="741" type="line" smooth="yes"/>
      <point x="376" y="712"/>
      <point x="354" y="690"/>
      <point x="325" y="690" type="curve" smooth="yes"/>
      <point x="312" y="690" type="line" smooth="yes"/>
      <point x="283" y="690"/>
      <point x="261" y="712"/>
      <point x="261" y="741" type="curve" smooth="yes"/>
      <point x="261" y="754" type="line" smooth="yes"/>
      <point x="261" y="783"/>
      <point x="238" y="805"/>
      <point x="209" y="805" type="curve" smooth="yes"/>
      <point x="81" y="805" type="line" smooth="yes"/>
      <point x="52" y="805"/>
      <point x="30" y="783"/>
      <point x="30" y="754" type="curve" smooth="yes"/>
      <point x="30" y="626" type="line" smooth="yes"/>
      <point x="30" y="597"/>
      <point x="52" y="575"/>
      <point x="81" y="575" type="curve" smooth="yes"/>
      <point x="94" y="575" type="line" smooth="yes"/>
      <point x="123" y="575"/>
      <point x="145" y="553"/>
      <point x="145" y="524" type="curve" smooth="yes"/>
      <point x="145" y="511" type="line" smooth="yes"/>
      <point x="145" y="482"/>
      <point x="123" y="460"/>
      <point x="94" y="460" type="curve" smooth="yes"/>
      <point x="81" y="460" type="line" smooth="yes"/>
      <point x="52" y="460"/>
      <point x="30" y="438"/>
    </contour>
  </outline>
</glyph>
<glyph name="t_t.liga" format="2">
  <advance width="672"/>
  <outline>
    <contour>
      <point x="30" y="409" type="curve" smooth="yes"/>
      <point x="30" y="166" type="line"/>
      <point x="30" y="137"/>
      <point x="52" y="115"/>
      <point x="81" y="115" type="curve" smooth="yes"/>
      <point x="94" y="115" type="line" smooth="yes"/>
      <point x="123" y="115"/>
      <point x="145" y="93"/>
      <point x="145" y="64" type="curve" smooth="yes"/>
      <point x="145" y="51" type="line" smooth="yes"/>
      <point x="145" y="22"/>
      <point x="167" y="0"/>
      <point x="196" y="0" type="curve" smooth="yes"/>
      <point x="209" y="0" type="line" smooth="yes"/>
      <point x="238" y="0"/>
      <point x="260" y="22"/>
      <point x="260" y="51" type="curve" smooth="yes"/>
      <point x="260" y="64" type="line" smooth="yes"/>
      <point x="260" y="93"/>
      <point x="238" y="115"/>
      <point x="209" y="115" type="curve" smooth="yes"/>
      <point x="196" y="115" type="line" smooth="yes"/>
      <point x="167" y="115"/>
      <point x="145" y="137"/>
      <point x="145" y="166" type="curve" smooth="yes"/>
      <point x="145" y="409" type="line" smooth="yes"/>
      <point x="145" y="438"/>
      <point x="167" y="460"/>
      <point x="196" y="460" type="curve" smooth="yes"/>
      <point x="209" y="460" type="line" smooth="yes"/>
      <point x="238" y="460"/>
      <point x="260" y="482"/>
      <point x="260" y="511" type="curve" smooth="yes"/>
      <point x="260" y="524" type="line" smooth="yes"/>
      <point x="260" y="553"/>
      <point x="238" y="575"/>
      <point x="209" y="575" type="curve" smooth="yes"/>
      <point x="196" y="575" type="line" smooth="yes"/>
      <point x="167" y="575"/>
      <point x="145" y="597"/>
      <point x="145" y="626" type="curve" smooth="yes"/>
      <point x="145" y="639" type="line" smooth="yes"/>
      <point x="145" y="668"/>
      <point x="123" y="690"/>
      <point x="94" y="690" type="curve" smooth="yes"/>
      <point x="81" y="690" type="line" smooth="yes"/>
      <point x="52" y="690"/>
      <point x="30" y="668"/>
      <point x="30" y="639" type="curve" smooth="yes"/>
      <point x="30" y="626" type="line" smooth="yes"/>
      <point x="30" y="597"/>
      <point x="52" y="575"/>
      <point x="81" y="575" type="curve" smooth="yes"/>
      <point x="94" y="575" type="line" smooth="yes"/>
      <point x="123" y="575"/>
      <point x="145" y="553"/>
      <point x="145" y="524" type="curve" smooth="yes"/>
      <point x="145" y="511" type="line" smooth="yes"/>
      <point x="145" y="482"/>
      <point x="123" y="460"/>
      <point x="94" y="460" type="curve" smooth="yes"/>
      <point x="81" y="460" type="line" smooth="yes"/>
      <point x="52" y="460"/>
      <point x="30" y="438"/>
    </contour>
    <contour>
      <point x="297" y="409" type="curve" smooth="yes"/>
      <point x="297" y="166" type="line"/>
      <point x="297" y="137"/>
      <point x="319" y="115"/>
      <point x="348" y="115" type="curve" smooth="yes"/>
      <point x="361" y="115" type="line" smooth="yes"/>
      <point x="390" y="115"/>
      <point x="412" y="93"/>
      <point x="412" y="64" type="curve" smooth="yes"/>
      <point x="412" y="51" type="line" smooth="yes"/>
      <point x="412" y="22"/>
      <point x="434" y="0"/>
      <point x="463" y="0" type="curve" smooth="yes"/>
      <point x="591" y="0" type="line" smooth="yes"/>
      <point x="620" y="0"/>
      <point x="642" y="22"/>
      <point x="642" y="51" type="curve" smooth="yes"/>
      <point x="642" y="64" type="line" smooth="yes"/>
      <point x="642" y="93"/>
      <point x="620" y="115"/>
      <point x="591" y="115" type="curve" smooth="yes"/>
      <point x="463" y="115" type="line" smooth="yes"/>
      <point x="434" y="115"/>
      <point x="412" y="137"/>
      <point x="412" y="166" type="curve" smooth="yes"/>
      <point x="412" y="409" type="line" smooth="yes"/>
      <point x="412" y="438"/>
      <point x="434" y="460"/>
      <point x="463" y="460" type="curve" smooth="yes"/>
      <point x="476" y="460" type="line" smooth="yes"/>
      <point x="505" y="460"/>
      <point x="527" y="482"/>
      <point x="527" y="511" type="curve" smooth="yes"/>
      <point x="527" y="524" type="line" smooth="yes"/>
      <point x="527" y="553"/>
      <point x="505" y="575"/>
      <point x="476" y="575" type="curve" smooth="yes"/>
      <point x="463" y="575" type="line" smooth="yes"/>
      <point x="434" y="575"/>
      <point x="412" y="597"/>
      <point x="412" y="626" type="curve" smooth="yes"/>
      <point x="412" y="639" type="line" smooth="yes"/>
      <point x="412" y="668"/>
      <point x="390" y="690"/>
      <point x="361" y="690" type="curve" smooth="yes"/>
      <point x="348" y="690" type="line" smooth="yes"/>
      <point x="319" y="690"/>
      <point x="297" y="668"/>
      <point x="297" y="639" type="curve" smooth="yes"/>
      <point x="297" y="626" type="line" smooth="yes"/>
      <point x="297" y="597"/>
      <point x="319" y="575"/>
      <point x="348" y="575" type="curve" smooth="yes"/>
      <point x="361" y="575" type="line" smooth="yes"/>
      <point x="390" y="575"/>
      <point x="412" y="553"/>
      <point x="412" y="524" type="curve" smooth="yes"/>
      <point x="412" y="511" type="line" smooth="yes"/>
      <point x="412" y="482"/>
      <point x="390" y="460"/>
      <point x="361" y="460" type="curve" smooth="yes"/>
      <point x="348" y="460" type="line" smooth="yes"/>
      <point x="319" y="460"/>
      <point x="297" y="438"/>
    </contour>
  </outline>
</glyph>
